<?xml version="1.0" encoding="UTF-8"?>
<!-- Created with Inkscape (http://www.inkscape.org/) -->
<svg width="160" height="160" version="1.1" viewBox="0 0 42.333 42.333" xmlns="http://www.w3.org/2000/svg" xmlns:xlink="http://www.w3.org/1999/xlink"><defs><linearGradient id="linearGradient870"><stop stop-color="#7935df" offset="0"/><stop stop-color="#161b22" offset="1"/></linearGradient><linearGradient id="linearGradient190455" x1="32.947" x2="59.618" y1="31.728" y2="70.433" gradientUnits="userSpaceOnUse" xlink:href="#linearGradient870"/><linearGradient id="linearGradient194575" x1="32.947" x2="54.676" y1="31.728" y2="56.959" gradientUnits="userSpaceOnUse" xlink:href="#linearGradient870"/></defs><g transform="translate(-12.301 -10.087)"><g><text x="85.64711" y="32.289909" fill="#000000" font-family="sans-serif" font-size="10.583px" stroke-width=".26458" style="line-height:1.25" xml:space="preserve"><tspan x="85.64711" y="32.289909" stroke-width=".26458"/></text><g transform="translate(-5.1052 -6.2993)" fill="url(#linearGradient190455)" stroke-width=".26458" aria-label="O"><path d="m38.33 18.207h1.9637c2.2565 0 4.0049 0.21532 5.2452 0.64596 2.4632 0.66318 4.6466 1.8087 6.55 3.4365 1.912 1.6536 3.3417 3.8241 4.2891 6.5112 0.7407 2.1446 1.111 4.6121 1.111 7.4027 0 0.7407-0.01723 1.4986-0.05168 2.2738-0.24977 2.9283-1.223 5.8911-2.9197 8.8884-1.6881 2.9972-4.0308 5.3442-7.028 7.0409-2.3254 1.4469-5.3787 2.2781-9.1597 2.4934h-0.9431c-2.9972 0-5.7835-0.62012-8.3587-1.8604-2.8594-1.378-5.1375-3.458-6.8342-6.2399-1.5659-3.4818-2.6992-7.0449-2.5164-10.235 0.03445-3.5657 0.93163-6.9519 2.6197-9.9835 1.6967-2.9972 3.9576-5.4303 6.7825-7.2993 2.8164-1.8345 5.8997-2.8594 9.2501-3.0748z" fill="url(#linearGradient194575)"/></g><text transform="scale(.26458)" fill="#000000" font-family="sans-serif" font-size="40px" style="line-height:1.25;shape-inside:url(#rect90521);white-space:pre" xml:space="preserve"/><text transform="matrix(.26458 0 0 .26458 12.301 10.087)" fill="#000000" font-family="sans-serif" font-size="40px" style="line-height:1.25;shape-inside:url(#rect197589);white-space:pre" xml:space="preserve"/></g><g transform="translate(.32866 -.33885)" stroke-width=".26458" aria-label="T"><path d="m21.504 19.796c2.6654 0.10106 6.5844 0.20527 11.757 0.31264 5.5391-0.10737 9.8467-0.21159 12.923-0.31264v3.2279c-1.1874-0.05053-3.0506-0.07579-5.5897-0.07579-1.2695-0.05053-2.6162-0.07579-5.0984-0.07579 0.05053 2.6401 0.07579 3.7924 0.07579 5.5735 0 1.8127 0.01579 3.9759 0.04737 6.4897 0 2.5075 0.02526 4.7686 0.07579 6.7834 0.02527 2.0464 0.06316 3.7549 0.11369 5.1254h-3.8532c0.1579-4.8633 0.23685-10.93 0.23685-18.2v-5.7724c-1.219 0.02527-2.3983 0.0379-4.5963 0.0379s-4.2286 0.0379-6.0918 0.11369z" fill="#fff"/></g></g></svg>
